<svg xmlns="http://www.w3.org/2000/svg" xmlns:xlink="http://www.w3.org/1999/xlink" width="2000" zoomAndPan="magnify" viewBox="0 0 1500 1499.999933" height="2000" preserveAspectRatio="xMidYMid meet" version="1.0"><defs><g/><clipPath id="c496dcda28"><path d="M 347.289062 479.183594 L 870.078125 479.183594 L 870.078125 1001.972656 L 347.289062 1001.972656 Z M 347.289062 479.183594 " clip-rule="nonzero"/></clipPath><clipPath id="d11d63df90"><path d="M 608.683594 479.183594 C 464.320312 479.183594 347.289062 596.214844 347.289062 740.578125 C 347.289062 884.941406 464.320312 1001.972656 608.683594 1001.972656 C 753.046875 1001.972656 870.078125 884.941406 870.078125 740.578125 C 870.078125 596.214844 753.046875 479.183594 608.683594 479.183594 Z M 608.683594 479.183594 " clip-rule="nonzero"/></clipPath><clipPath id="7210fc99ad"><path d="M 0.289062 0.183594 L 523.078125 0.183594 L 523.078125 522.972656 L 0.289062 522.972656 Z M 0.289062 0.183594 " clip-rule="nonzero"/></clipPath><clipPath id="3897267a94"><path d="M 261.683594 0.183594 C 117.320312 0.183594 0.289062 117.214844 0.289062 261.578125 C 0.289062 405.941406 117.320312 522.972656 261.683594 522.972656 C 406.046875 522.972656 523.078125 405.941406 523.078125 261.578125 C 523.078125 117.214844 406.046875 0.183594 261.683594 0.183594 Z M 261.683594 0.183594 " clip-rule="nonzero"/></clipPath><clipPath id="edb49a30a6"><rect x="0" width="524" y="0" height="523"/></clipPath><clipPath id="38744c575b"><rect x="0" width="757" y="0" height="359"/></clipPath><clipPath id="ad223a5d3f"><path d="M 257 766 L 517 766 L 517 1005 L 257 1005 Z M 257 766 " clip-rule="nonzero"/></clipPath><clipPath id="6263c252fb"><path d="M 517.015625 766.800781 L 542.375 989.609375 L 265.910156 1021.078125 L 240.550781 798.265625 Z M 517.015625 766.800781 " clip-rule="nonzero"/></clipPath><clipPath id="5a5506a0b1"><path d="M 517.015625 766.800781 L 542.375 989.609375 L 265.910156 1021.078125 L 240.550781 798.265625 Z M 517.015625 766.800781 " clip-rule="nonzero"/></clipPath><clipPath id="828ac0e872"><path d="M 517.015625 766.800781 L 542.375 989.609375 L 265.910156 1021.078125 L 240.550781 798.265625 Z M 517.015625 766.800781 " clip-rule="nonzero"/></clipPath><clipPath id="af28723cc1"><path d="M 516.996094 766.800781 L 542.355469 989.632812 L 265.898438 1021.101562 L 240.539062 798.269531 Z M 516.996094 766.800781 " clip-rule="nonzero"/></clipPath></defs><g clip-path="url(#c496dcda28)"><g clip-path="url(#d11d63df90)"><g transform="matrix(1, 0, 0, 1, 347, 479)"><g clip-path="url(#edb49a30a6)"><g clip-path="url(#7210fc99ad)"><g clip-path="url(#3897267a94)"><path fill="#fcb111" d="M 0.289062 0.183594 L 523.078125 0.183594 L 523.078125 522.972656 L 0.289062 522.972656 Z M 0.289062 0.183594 " fill-opacity="1" fill-rule="nonzero"/></g></g></g></g></g></g><g transform="matrix(1, 0, 0, 1, 542, 561)"><g clip-path="url(#38744c575b)"><g fill="#1d1d1b" fill-opacity="1"><g transform="translate(0.357565, 156.197048)"><g><path d="M 2.828125 0 L 40.234375 -109.71875 L 74.984375 -109.71875 L 112.546875 0 L 86.453125 0 L 58.859375 -90.765625 L 56.53125 -90.765625 L 28.765625 0 Z M 23.78125 -21.453125 L 23.78125 -37.90625 L 94.921875 -37.90625 L 94.921875 -21.453125 Z M 23.78125 -21.453125 "/></g></g></g><g fill="#1d1d1b" fill-opacity="1"><g transform="translate(115.720592, 156.197048)"><g><path d="M 10.640625 0 L 10.640625 -87.28125 L 30.25 -87.28125 L 30.09375 -60.1875 L 33.25 -60.1875 C 34.6875 -67.382812 36.816406 -73.117188 39.640625 -77.390625 C 42.472656 -81.660156 45.910156 -84.765625 49.953125 -86.703125 C 54.003906 -88.640625 58.578125 -89.609375 63.671875 -89.609375 C 69.429688 -89.609375 74.164062 -88.582031 77.875 -86.53125 C 81.59375 -84.476562 84.5625 -81.789062 86.78125 -78.46875 C 89 -75.144531 90.660156 -71.515625 91.765625 -67.578125 C 92.878906 -63.640625 93.601562 -59.734375 93.9375 -55.859375 C 94.269531 -51.984375 94.4375 -48.492188 94.4375 -45.390625 L 94.4375 0 L 70.484375 0 L 70.484375 -42.5625 C 70.484375 -44.664062 70.375 -47.210938 70.15625 -50.203125 C 69.9375 -53.203125 69.351562 -56.164062 68.40625 -59.09375 C 67.46875 -62.03125 65.914062 -64.5 63.75 -66.5 C 61.59375 -68.5 58.578125 -69.5 54.703125 -69.5 C 50.265625 -69.5 46.578125 -68.140625 43.640625 -65.421875 C 40.703125 -62.703125 38.457031 -59.015625 36.90625 -54.359375 C 35.351562 -49.703125 34.578125 -44.492188 34.578125 -38.734375 L 34.578125 0 Z M 10.640625 0 "/></g></g></g><g fill="#1d1d1b" fill-opacity="1"><g transform="translate(219.613903, 156.197048)"><g><path d="M 31.25 2.328125 C 26.375 2.328125 22.050781 1.382812 18.28125 -0.5 C 14.519531 -2.382812 11.554688 -5.125 9.390625 -8.71875 C 7.234375 -12.320312 6.15625 -16.726562 6.15625 -21.9375 C 6.15625 -28.039062 7.507812 -32.863281 10.21875 -36.40625 C 12.9375 -39.957031 16.425781 -42.671875 20.6875 -44.546875 C 24.957031 -46.429688 29.472656 -47.789062 34.234375 -48.625 C 39.003906 -49.457031 43.441406 -50.148438 47.546875 -50.703125 C 51.316406 -51.253906 54.363281 -51.832031 56.6875 -52.4375 C 59.019531 -53.050781 60.710938 -53.941406 61.765625 -55.109375 C 62.816406 -56.273438 63.34375 -57.851562 63.34375 -59.84375 C 63.34375 -62.0625 62.84375 -64 61.84375 -65.65625 C 60.84375 -67.320312 59.34375 -68.679688 57.34375 -69.734375 C 55.351562 -70.796875 52.753906 -71.328125 49.546875 -71.328125 C 46.441406 -71.328125 43.503906 -70.769531 40.734375 -69.65625 C 37.960938 -68.550781 35.601562 -66.863281 33.65625 -64.59375 C 31.71875 -62.320312 30.421875 -59.46875 29.765625 -56.03125 L 8.484375 -62.015625 C 9.703125 -66.773438 11.554688 -70.875 14.046875 -74.3125 C 16.535156 -77.75 19.550781 -80.601562 23.09375 -82.875 C 26.644531 -85.144531 30.640625 -86.832031 35.078125 -87.9375 C 39.515625 -89.050781 44.335938 -89.609375 49.546875 -89.609375 C 56.304688 -89.609375 62.066406 -88.773438 66.828125 -87.109375 C 71.597656 -85.453125 75.453125 -82.929688 78.390625 -79.546875 C 81.328125 -76.171875 83.488281 -72.070312 84.875 -67.25 C 86.257812 -62.425781 86.953125 -56.910156 86.953125 -50.703125 L 86.953125 -35.75 C 86.953125 -31.976562 87.003906 -28.066406 87.109375 -24.015625 C 87.222656 -19.972656 87.414062 -15.957031 87.6875 -11.96875 C 87.96875 -7.976562 88.273438 -3.988281 88.609375 0 L 67.5 0 C 67.164062 -2.988281 66.800781 -6.285156 66.40625 -9.890625 C 66.019531 -13.492188 65.773438 -17.179688 65.671875 -20.953125 L 62.84375 -20.953125 C 61.289062 -16.734375 59.070312 -12.820312 56.1875 -9.21875 C 53.3125 -5.625 49.765625 -2.800781 45.546875 -0.75 C 41.335938 1.300781 36.570312 2.328125 31.25 2.328125 Z M 41.390625 -15.125 C 43.503906 -15.125 45.640625 -15.484375 47.796875 -16.203125 C 49.953125 -16.929688 52.054688 -18.015625 54.109375 -19.453125 C 56.160156 -20.890625 58.046875 -22.71875 59.765625 -24.9375 C 61.484375 -27.15625 62.84375 -29.648438 63.84375 -32.421875 L 63.5 -45.546875 L 67.328125 -44.890625 C 65.441406 -43.441406 63.195312 -42.300781 60.59375 -41.46875 C 57.988281 -40.644531 55.273438 -40.007812 52.453125 -39.5625 C 49.628906 -39.125 46.832031 -38.625 44.0625 -38.0625 C 41.289062 -37.507812 38.796875 -36.789062 36.578125 -35.90625 C 34.359375 -35.019531 32.582031 -33.800781 31.25 -32.25 C 29.925781 -30.695312 29.265625 -28.59375 29.265625 -25.9375 C 29.265625 -22.613281 30.398438 -19.976562 32.671875 -18.03125 C 34.941406 -16.09375 37.847656 -15.125 41.390625 -15.125 Z M 41.390625 -15.125 "/></g></g></g><g fill="#1d1d1b" fill-opacity="1"><g transform="translate(316.193091, 156.197048)"><g><path d="M 10.640625 0 L 10.640625 -118.53125 L 34.25 -118.53125 L 34.25 0 Z M 10.640625 0 "/></g></g></g><g fill="#1d1d1b" fill-opacity="1"><g transform="translate(361.07501, 156.197048)"><g><path d="M 43.5625 29.765625 C 39.125 29.765625 34.632812 29.375 30.09375 28.59375 C 25.550781 27.820312 21.253906 26.601562 17.203125 24.9375 C 13.160156 23.269531 9.753906 21.109375 6.984375 18.453125 L 13.625 -2.328125 C 17.175781 1.441406 21.582031 4.210938 26.84375 5.984375 C 32.113281 7.753906 37.296875 8.640625 42.390625 8.640625 C 47.828125 8.640625 52.289062 7.722656 55.78125 5.890625 C 59.269531 4.066406 61.984375 1.578125 63.921875 -1.578125 C 65.859375 -4.734375 67.269531 -8.390625 68.15625 -12.546875 C 69.050781 -16.703125 69.550781 -21.109375 69.65625 -25.765625 L 70.484375 -39.40625 L 67 -39.40625 C 66 -31.976562 64.25 -25.9375 61.75 -21.28125 C 59.257812 -16.625 56.101562 -13.210938 52.28125 -11.046875 C 48.457031 -8.890625 43.941406 -7.8125 38.734375 -7.8125 C 33.078125 -7.8125 28.394531 -8.945312 24.6875 -11.21875 C 20.976562 -13.488281 18.125 -16.425781 16.125 -20.03125 C 14.132812 -23.632812 12.664062 -27.429688 11.71875 -31.421875 C 10.78125 -35.410156 10.226562 -39.175781 10.0625 -42.71875 C 9.894531 -46.269531 9.8125 -49.039062 9.8125 -51.03125 L 9.8125 -87.28125 L 33.75 -87.28125 L 33.75 -57.859375 C 33.75 -55.640625 33.800781 -53.171875 33.90625 -50.453125 C 34.019531 -47.742188 34.269531 -45.054688 34.65625 -42.390625 C 35.050781 -39.734375 35.773438 -37.269531 36.828125 -35 C 37.878906 -32.726562 39.289062 -30.925781 41.0625 -29.59375 C 42.832031 -28.257812 45.101562 -27.59375 47.875 -27.59375 C 51.53125 -27.59375 54.4375 -28.703125 56.59375 -30.921875 C 58.757812 -33.140625 60.453125 -35.910156 61.671875 -39.234375 C 62.890625 -42.554688 63.722656 -45.988281 64.171875 -49.53125 C 64.617188 -53.082031 64.894531 -56.132812 65 -58.6875 L 65 -87.28125 L 88.9375 -87.28125 L 88.9375 -24.765625 C 88.9375 -21.660156 88.769531 -18.195312 88.4375 -14.375 C 88.113281 -10.550781 87.476562 -6.585938 86.53125 -2.484375 C 85.59375 1.609375 84.097656 5.566406 82.046875 9.390625 C 79.992188 13.210938 77.304688 16.675781 73.984375 19.78125 C 70.660156 22.882812 66.503906 25.320312 61.515625 27.09375 C 56.523438 28.875 50.539062 29.765625 43.5625 29.765625 Z M 43.5625 29.765625 "/></g></g></g><g fill="#1d1d1b" fill-opacity="1"><g transform="translate(460.313836, 156.197048)"><g><path d="M 43.21875 2 C 38.457031 2 34.300781 1.390625 30.75 0.171875 C 27.207031 -1.046875 24.242188 -2.957031 21.859375 -5.5625 C 19.472656 -8.164062 17.671875 -11.519531 16.453125 -15.625 C 15.234375 -19.726562 14.625 -24.601562 14.625 -30.25 L 14.625 -68.5 L 2.15625 -68.5 L 2.65625 -86.953125 L 10.640625 -86.953125 C 14.296875 -87.054688 17.007812 -87.691406 18.78125 -88.859375 C 20.5625 -90.023438 21.613281 -92.101562 21.9375 -95.09375 L 23.9375 -106.734375 L 37.578125 -106.734375 L 37.578125 -87.28125 L 59.515625 -87.28125 L 59.515625 -67.828125 L 37.578125 -67.828125 L 37.578125 -31.421875 C 37.578125 -26.878906 38.679688 -23.832031 40.890625 -22.28125 C 43.109375 -20.726562 45.828125 -19.953125 49.046875 -19.953125 C 51.035156 -19.953125 53.023438 -20.203125 55.015625 -20.703125 C 57.015625 -21.203125 58.738281 -21.894531 60.1875 -22.78125 L 60.1875 -0.5 C 56.75 0.5 53.585938 1.164062 50.703125 1.5 C 47.828125 1.832031 45.332031 2 43.21875 2 Z M 43.21875 2 "/></g></g></g><g fill="#1d1d1b" fill-opacity="1"><g transform="translate(525.808183, 156.197048)"><g><path d="M 10.640625 0 L 10.640625 -87.28125 L 34.578125 -87.28125 L 34.578125 0 Z M 22.609375 -99.921875 C 17.960938 -99.921875 14.390625 -100.914062 11.890625 -102.90625 C 9.398438 -104.90625 8.15625 -107.734375 8.15625 -111.390625 C 8.15625 -115.273438 9.398438 -118.210938 11.890625 -120.203125 C 14.390625 -122.203125 17.960938 -123.203125 22.609375 -123.203125 C 27.378906 -123.203125 31.007812 -122.203125 33.5 -120.203125 C 36 -118.210938 37.25 -115.273438 37.25 -111.390625 C 37.25 -107.734375 36 -104.90625 33.5 -102.90625 C 31.007812 -100.914062 27.378906 -99.921875 22.609375 -99.921875 Z M 22.609375 -99.921875 "/></g></g></g><g fill="#1d1d1b" fill-opacity="1"><g transform="translate(571.022497, 156.197048)"><g><path d="M 51.03125 2.328125 C 43.5 2.328125 36.90625 1.21875 31.25 -1 C 25.601562 -3.21875 20.921875 -6.320312 17.203125 -10.3125 C 13.492188 -14.300781 10.695312 -19.035156 8.8125 -24.515625 C 6.925781 -30.003906 5.984375 -36.019531 5.984375 -42.5625 C 5.984375 -49.4375 6.925781 -55.722656 8.8125 -61.421875 C 10.695312 -67.128906 13.519531 -72.085938 17.28125 -76.296875 C 21.050781 -80.515625 25.707031 -83.785156 31.25 -86.109375 C 36.789062 -88.441406 43.109375 -89.609375 50.203125 -89.609375 C 55.640625 -89.609375 60.519531 -88.914062 64.84375 -87.53125 C 69.164062 -86.144531 72.929688 -84.203125 76.140625 -81.703125 C 79.359375 -79.210938 81.988281 -76.222656 84.03125 -72.734375 C 86.082031 -69.242188 87.441406 -65.335938 88.109375 -61.015625 L 66.171875 -54.359375 C 65.835938 -57.910156 64.921875 -60.929688 63.421875 -63.421875 C 61.929688 -65.921875 59.960938 -67.78125 57.515625 -69 C 55.078125 -70.21875 52.253906 -70.828125 49.046875 -70.828125 C 46.378906 -70.828125 43.910156 -70.296875 41.640625 -69.234375 C 39.367188 -68.179688 37.375 -66.578125 35.65625 -64.421875 C 33.9375 -62.265625 32.578125 -59.46875 31.578125 -56.03125 C 30.585938 -52.59375 30.09375 -48.4375 30.09375 -43.5625 C 30.09375 -37.019531 30.953125 -31.695312 32.671875 -27.59375 C 34.390625 -23.5 36.851562 -20.476562 40.0625 -18.53125 C 43.28125 -16.59375 47.050781 -15.625 51.375 -15.625 C 55.695312 -15.625 59.160156 -16.507812 61.765625 -18.28125 C 64.367188 -20.0625 66.304688 -22.304688 67.578125 -25.015625 C 68.859375 -27.734375 69.609375 -30.585938 69.828125 -33.578125 L 90.9375 -29.09375 C 90.5 -24.769531 89.390625 -20.695312 87.609375 -16.875 C 85.835938 -13.050781 83.316406 -9.695312 80.046875 -6.8125 C 76.773438 -3.9375 72.726562 -1.691406 67.90625 -0.078125 C 63.09375 1.523438 57.46875 2.328125 51.03125 2.328125 Z M 51.03125 2.328125 "/></g></g></g><g fill="#1d1d1b" fill-opacity="1"><g transform="translate(664.609534, 156.197048)"><g><path d="M 45.71875 2.328125 C 39.84375 2.328125 34.519531 1.769531 29.75 0.65625 C 24.988281 -0.445312 20.890625 -2.078125 17.453125 -4.234375 C 14.015625 -6.398438 11.242188 -9.003906 9.140625 -12.046875 C 7.035156 -15.097656 5.707031 -18.507812 5.15625 -22.28125 L 23.609375 -29.265625 C 24.046875 -26.828125 25.234375 -24.523438 27.171875 -22.359375 C 29.117188 -20.203125 31.753906 -18.484375 35.078125 -17.203125 C 38.398438 -15.929688 42.445312 -15.296875 47.21875 -15.296875 C 52.207031 -15.296875 56.085938 -16.039062 58.859375 -17.53125 C 61.628906 -19.03125 63.015625 -21.164062 63.015625 -23.9375 C 63.015625 -26.039062 62.238281 -27.703125 60.6875 -28.921875 C 59.132812 -30.140625 56.890625 -31.191406 53.953125 -32.078125 C 51.015625 -32.972656 47.4375 -33.804688 43.21875 -34.578125 C 39.007812 -35.578125 34.769531 -36.65625 30.5 -37.8125 C 26.238281 -38.976562 22.304688 -40.554688 18.703125 -42.546875 C 15.097656 -44.546875 12.1875 -47.148438 9.96875 -50.359375 C 7.757812 -53.578125 6.65625 -57.679688 6.65625 -62.671875 C 6.65625 -68.109375 8.09375 -72.820312 10.96875 -76.8125 C 13.851562 -80.800781 18.09375 -83.929688 23.6875 -86.203125 C 29.289062 -88.472656 36.023438 -89.609375 43.890625 -89.609375 C 51.097656 -89.609375 57.414062 -88.640625 62.84375 -86.703125 C 68.269531 -84.765625 72.703125 -81.9375 76.140625 -78.21875 C 79.578125 -74.507812 81.847656 -70.050781 82.953125 -64.84375 L 63.5 -58.6875 C 63.0625 -61.457031 62.007812 -63.867188 60.34375 -65.921875 C 58.6875 -67.972656 56.441406 -69.492188 53.609375 -70.484375 C 50.785156 -71.484375 47.488281 -71.984375 43.71875 -71.984375 C 39.0625 -71.984375 35.429688 -71.207031 32.828125 -69.65625 C 30.222656 -68.101562 28.921875 -66.050781 28.921875 -63.5 C 28.921875 -61.394531 29.78125 -59.675781 31.5 -58.34375 C 33.21875 -57.019531 35.597656 -55.941406 38.640625 -55.109375 C 41.691406 -54.273438 45.328125 -53.414062 49.546875 -52.53125 C 53.972656 -51.644531 58.265625 -50.617188 62.421875 -49.453125 C 66.578125 -48.296875 70.375 -46.773438 73.8125 -44.890625 C 77.25 -43.003906 79.992188 -40.507812 82.046875 -37.40625 C 84.097656 -34.300781 85.125 -30.253906 85.125 -25.265625 C 85.125 -19.503906 83.570312 -14.570312 80.46875 -10.46875 C 77.363281 -6.375 72.875 -3.21875 67 -1 C 61.125 1.21875 54.03125 2.328125 45.71875 2.328125 Z M 45.71875 2.328125 "/></g></g></g><g fill="#1d1d1b" fill-opacity="1"><g transform="translate(0.357565, 312.074356)"><g><path d="M 2.828125 0 L 40.234375 -109.71875 L 74.984375 -109.71875 L 112.546875 0 L 86.453125 0 L 58.859375 -90.765625 L 56.53125 -90.765625 L 28.765625 0 Z M 23.78125 -21.453125 L 23.78125 -37.90625 L 94.921875 -37.90625 L 94.921875 -21.453125 Z M 23.78125 -21.453125 "/></g></g></g><g fill="#1d1d1b" fill-opacity="1"><g transform="translate(115.720592, 312.074356)"><g><path d="M 28.59375 -31.09375 L 28.59375 -49.875 L 51.203125 -49.875 C 53.085938 -49.875 55.222656 -49.925781 57.609375 -50.03125 C 59.992188 -50.144531 62.320312 -50.535156 64.59375 -51.203125 C 66.863281 -51.867188 68.96875 -52.945312 70.90625 -54.4375 C 72.84375 -55.9375 74.363281 -57.988281 75.46875 -60.59375 C 76.582031 -63.195312 77.140625 -66.609375 77.140625 -70.828125 C 77.140625 -74.816406 76.554688 -78.082031 75.390625 -80.625 C 74.234375 -83.175781 72.710938 -85.171875 70.828125 -86.609375 C 68.941406 -88.054688 66.941406 -89.109375 64.828125 -89.765625 C 62.722656 -90.429688 60.726562 -90.820312 58.84375 -90.9375 C 56.96875 -91.050781 55.421875 -91.109375 54.203125 -91.109375 L 28.59375 -91.109375 L 28.59375 -109.71875 L 55.53125 -109.71875 C 62.394531 -109.71875 68.625 -108.914062 74.21875 -107.3125 C 79.820312 -105.707031 84.644531 -103.296875 88.6875 -100.078125 C 92.738281 -96.867188 95.867188 -92.769531 98.078125 -87.78125 C 100.296875 -82.789062 101.40625 -76.972656 101.40625 -70.328125 C 101.40625 -61.785156 99.46875 -54.601562 95.59375 -48.78125 C 91.71875 -42.96875 85.984375 -38.566406 78.390625 -35.578125 C 70.796875 -32.585938 61.289062 -31.09375 49.875 -31.09375 Z M 11.796875 0 L 11.796875 -109.71875 L 35.75 -109.71875 L 35.75 0 Z M 11.796875 0 "/></g></g></g><g fill="#1d1d1b" fill-opacity="1"><g transform="translate(222.107283, 312.074356)"><g><path d="M 11.796875 0 L 11.796875 -109.71875 L 36.078125 -109.71875 L 36.078125 0 Z M 11.796875 0 "/></g></g></g></g></g><g clip-path="url(#ad223a5d3f)"><g clip-path="url(#6263c252fb)"><g clip-path="url(#5a5506a0b1)"><g clip-path="url(#828ac0e872)"><g clip-path="url(#af28723cc1)"><path fill="#1d1d1b" d="M 415.523438 1004.074219 L 516.996094 766.800781 L 268.542969 825.992188 L 344.503906 878.996094 L 344.753906 879.289062 L 257.917969 950.980469 L 290.792969 990.84375 L 378.015625 918.828125 L 378.226562 919.074219 L 415.523438 1004.074219 " fill-opacity="1" fill-rule="nonzero"/></g></g></g></g></g></svg>